# xmcd
#
# Track frame offsets: 
#        150
#        10210
#        23100
#        35980
#        48712
#        60210
#        70990
#        80540
#        93502
#        104867
#        117932
#        129140
#        140190
#        154327
#        168407
#        177862
#        189567
#        199097
#        219700
#        233462
#        245535
#        258500
#        272392
#        283830
#
# Disc length: 3924 seconds
#
# Revision: 0
# Processed by: cddbd v1.5.2PL0 Copyright (c) Steve Scherf et al.
# Submitted via: ExactAudioCopy v0.95b4
#
DISCID=640f5218
DTITLE=Sons Of The Pioneers - South Of The Border
DYEAR=1967
DGENRE=Western
TTITLE0=My Adobe Hacienda (1960)
TTITLE1=Maria Elena (1967)
TTITLE2=South Of The Border (1962)
TTITLE3=Sleepy Rio Grande (1964)
TTITLE4=It Happened In Monterey (1966)
TTITLE5=Memories Are Made Of This (1964)
TTITLE6=A Gay Ranchero (1967)
TTITLE7=Rosa (1967)
TTITLE8=You Belong To My Heart (1967)
TTITLE9=Spanish Eyes (1967)
TTITLE10=Love Me With All Your Heart (1967)
TTITLE11=Yours (1967)
TTITLE12=By The River Of The Roses (1964)
TTITLE13=Carry Me Back To The Lone Prairie (1960)
TTITLE14=Silver On The Range (1960)
TTITLE15=I Still Do (1963)
TTITLE16=A Cowboy Has To Sing (1960)
TTITLE17=El Paso (1960)
TTITLE18=Margretta (1967)
TTITLE19=Mexicali Rose (1967)
TTITLE20=O Bury Me Not On The Lone Prairie (1964)
TTITLE21=Greenfields (1963)
TTITLE22=Ramona (1963)
TTITLE23=Vaya Con Dios (1964)
EXTD=South Of The Border\n© 2007 Texas Moon Records/Sony BMG Music Ent
EXTD=ertainment\n\nCompilation Originally Released 2007\n\nCollectors'
EXTD=Choice Notes\nTitle: South Of The Border\nArtist: Sons Of The Pi
EXTD=oneers \n\nThey spice up their smooth three-part harmonies with M
EXTD=exican flavor as you hear 24 '60s tracks (including bonus cuts no
EXTD=t on the 1968 LP). These were Tommy Doss's last recordings with t
EXTD=he group: 'El Paso - Mexicali Rose - Spanish Eyes - Ramona - Sleepy R
EXTD=io Grande - South of the Border - Maria Elena - My Adobe Hacienda - V
EXTD=aya Con Dios', and more. First-time reissue! 
EXTT0=
EXTT1=
EXTT2=
EXTT3=
EXTT4=
EXTT5=
EXTT6=
EXTT7=
EXTT8=
EXTT9=
EXTT10=
EXTT11=
EXTT12=
EXTT13=
EXTT14=
EXTT15=
EXTT16=
EXTT17=
EXTT18=
EXTT19=
EXTT20=
EXTT21=
EXTT22=
EXTT23=
PLAYORDER=
